<?xml version="1.0" encoding="UTF-8"?>
<svg width="100" height="100" version="1.1" viewBox="0 0 100 100" xmlns="http://www.w3.org/2000/svg" xmlns:cc="http://creativecommons.org/ns#" xmlns:dc="http://purl.org/dc/elements/1.1/" xmlns:rdf="http://www.w3.org/1999/02/22-rdf-syntax-ns#">
 <metadata>
  <rdf:RDF>
   <cc:Work rdf:about="">
    <dc:format>image/svg+xml</dc:format>
    <dc:type rdf:resource="http://purl.org/dc/dcmitype/StillImage"/>
    <dc:title/>
   </cc:Work>
  </rdf:RDF>
 </metadata>
 <g transform="matrix(.11943 0 0 .11943 4.336 7.0051)">
  <circle cx="382.35" cy="360" r="418.65" fill="#d02e77"/>
  <g transform="translate(17.81 47.652)" fill="#fff" fill-rule="evenodd" stroke-width="1.3748">
   <path d="m366.37 625.71 7.1585-12.207-269.77-158.2-7.1586 12.206zm247.23-470.61h14.151v312.74h-14.151zm-247.41-157.55 7.1585 12.207-269.77 158.2-7.1586-12.206zm-1.6439-14.756 278.42 164.77v329.55l-278.42 164.77-278.42-164.77v-329.55zm0-15.848 292.06 172.84v345.11l-292.06 172.84-292.06-172.84v-345.11z"/>
   <path d="m521.29 192.7c-112.74-0.4717-225.47-0.94341-338.21-1.4152-0.59764 13.094 2.54 26.818 8.9645 40.155h318.99c4.9756-11.69 8.4133-24.6 10.25-38.74zm-316.14 59.701c27.407 35.215 78.601 63.208 144.2 61.997 71.861-1.3262 122.86-22.091 150.23-61.997zm264.49-69.517c-30.307 0.11796-60.614 0.23592-90.921 0.35374 23.467-11.085 46.934-22.17 70.401-33.255 22.935-12.465 14.55-39.947-28.855-46.813-72.851-7.3575-134.04-3.1577-182.35 29.125-24.356 14.487-14.112 33.693 10.967 32.193 14.165-0.46291 21.626-4.8995 30.425-13.797 9.5613 5.6936 16.03 10 34.139 9.9945 8.4549 0.72688 8.9419 4.1068 0 4.2448-5.4842 0.24472-7.6046 0.34577-13.266 0.61936-18.687 0.99882-17.043 13.003-55.896 13.797-33.05-2.2719-42.72-20.543-34.67-39.623 14.559-28.67 64.668-43.209 118.16-53.066 37.834-5.1482 80.917-3.2267 108.96 5.306 19.443 7.4651 38.818 15.584 57.312 32.548 21.513 17.11 11.743 37.137-24.41 58.373zm-191.88-25.91c1.9784 0 3.5821 1.8412 3.5821 4.1124 0 2.2711-1.6037 4.1123-3.5821 4.1123-1.9784 0-3.5821-1.8412-3.5821-4.1123 0-2.2712 1.6037-4.1124 3.5821-4.1124zm-10.52 379.06v-121.68h24.641v121.68zm-2.3306-227.61c-2.0618 14.265-0.49494 27.972 3.7016 41.274 8.1686 18.853 31.1 24.544 63.679 20.166 32.889-4.5785 48.676-9.4073 35.378 15.212-9.7137 13.494-18.843 24.333-20.371 36.613l-44.398 114.35h26.058l10.112-27.7h48.802l10.508 27.7h26.54l-48.746-121.68h-17.69c3.4056-5.4514 7.5918-10.767 12.722-15.84 28.004-28.172 23.415-46.062-9.5517-45.283-29.127 1.5893-45.582 10.221-47.406-19.104 0.2439-4.6964 0.74846-8.6492 1.4128-12.106-17.397-2.39-34.573-6.8955-50.751-13.601zm172.27 227.61v-121.68h24.641v121.68zm-57.3-48.264-16.909-45.035-16.428 45.035z"/>
  </g>
 </g>
</svg>
